Coordinates
version=1
nRows=8
nColumns=63
inDegrees=yes

Units are S.I. units (second, meters, Newtons, ...)
If the header above contains a line with 'inDegrees', this indicates whether rotational values are in degrees (yes) or radians (no).

endheader
time	pelvis_tilt	pelvis_list	pelvis_rotation	pelvis_tx	pelvis_ty	pelvis_tz	hip_flexion_r	hip_adduction_r	hip_rotation_r	knee_angle_r	knee_angle_r_beta	ankle_angle_r	subtalar_angle_r	mtp_angle_r	hip_flexion_l	hip_adduction_l	hip_rotation_l	knee_angle_l	knee_angle_l_beta	ankle_angle_l	subtalar_angle_l	mtp_angle_l	L5_S1_Flex_Ext	L5_S1_Lat_Bending	L5_S1_axial_rotation	L4_L5_Flex_Ext	L4_L5_Lat_Bending	L4_L5_axial_rotation	L3_L4_Flex_Ext	L3_L4_Lat_Bending	L3_L4_axial_rotation	L2_L3_Flex_Ext	L2_L3_Lat_Bending	L2_L3_axial_rotation	L1_L2_Flex_Ext	L1_L2_Lat_Bending	L1_L2_axial_rotation	L1_T12_Flex_Ext	L1_T12_Lat_Bending	L1_T12_axial_rotation	Abs_r3	Abs_r2	Abs_r1	Abs_t1	Abs_t2	neck_flexion	neck_bending	neck_rotation	arm_flex_r	arm_add_r	arm_rot_r	elbow_flex_r	pro_sup_r	wrist_flex_r	wrist_dev_r	arm_flex_l	arm_add_l	arm_rot_l	elbow_flex_l	pro_sup_l	wrist_flex_l	wrist_dev_l
4.000000	-2.313251	0.222727	93.523857	0.205076	0.622384	0.688566	1.161695	-2.816742	-15.897625	8.850378	0.154468	17.219957	12.104811	0.000000	1.525080	3.679419	3.520080	3.856090	0.067301	8.279554	-13.306189	0.000000	-0.019033	0.011160	-1.066701	-0.035347	0.014843	-1.133370	-0.031270	0.027135	-1.133370	-0.021753	0.027135	-0.933364	-0.017674	0.022758	-0.866695	-0.010876	0.017287	-0.800026	-0.135954	0.126248	-5.932672	0.000000	0.000000	23.078070	6.045591	7.727204	-0.255555	-13.464445	33.040098	29.399669	80.228458	-7.879440	4.430306	0.303264	-12.957736	51.381571	22.946466	73.403470	-11.080275	0.573125
4.020833	-2.329759	0.117040	93.987424	0.204771	0.622376	0.689153	1.136294	-2.806850	-16.222411	8.591827	0.149956	17.020917	12.041811	0.000000	1.717124	3.708710	4.078038	3.948198	0.068909	8.012861	-13.513992	0.000000	-0.015102	-0.002150	-1.147109	-0.028047	-0.002859	-1.218803	-0.024812	-0.005227	-1.218803	-0.017261	-0.005227	-1.003720	-0.014024	-0.004384	-0.932026	-0.008630	-0.003330	-0.860331	-0.107875	-0.024321	-6.379874	0.000000	0.000000	23.292052	6.233614	7.429914	-0.334293	-13.252564	32.154194	29.957769	79.793053	-7.705782	4.372091	0.000202	-12.957116	49.454428	23.522297	73.734065	-10.399640	1.179864
4.041667	-2.343226	-0.003019	94.365692	0.204591	0.622324	0.689919	1.171843	-2.799672	-16.503788	8.376504	0.146198	16.820756	12.001189	0.000000	1.946066	3.736557	4.484156	4.057168	0.070811	7.815095	-13.607398	0.000000	-0.012476	-0.013525	-1.215701	-0.023169	-0.017989	-1.291682	-0.020497	-0.032885	-1.291682	-0.014259	-0.032885	-1.063738	-0.011585	-0.027581	-0.987757	-0.007129	-0.020951	-0.911776	-0.089114	-0.153000	-6.761365	0.000000	0.000000	23.481533	6.423372	7.234164	-0.325970	-13.053138	31.721954	30.424566	78.742488	-7.532963	4.106459	-0.289445	-12.948478	47.434481	24.137008	74.429114	-9.811996	1.780934
4.062500	-2.337147	-0.165375	94.619688	0.204544	0.622187	0.690896	1.321783	-2.785636	-16.728965	8.239686	0.143810	16.629162	12.013043	0.000000	2.269665	3.747723	4.785525	4.237293	0.073955	7.685014	-13.755212	0.000000	-0.008236	-0.019957	-1.258507	-0.015295	-0.026543	-1.337164	-0.013531	-0.048525	-1.337164	-0.009413	-0.048525	-1.101194	-0.007648	-0.040697	-1.022537	-0.004706	-0.030914	-0.943880	-0.058829	-0.225763	-6.999440	0.000000	0.000000	23.681828	6.549742	7.101176	-0.358638	-12.877808	31.008699	30.952599	78.044377	-7.420434	3.848747	-0.464154	-12.926047	45.858672	24.732231	75.135448	-9.382917	2.325947
4.083333	-2.321515	-0.366009	94.756462	0.204654	0.621989	0.692066	1.577878	-2.768666	-16.859014	8.174262	0.142668	16.439073	12.011807	0.000000	2.690903	3.738595	4.825577	4.506952	0.078661	7.688606	-13.710346	0.000000	-0.003082	-0.023222	-1.282037	-0.005724	-0.030886	-1.362164	-0.005064	-0.056463	-1.362164	-0.003523	-0.056463	-1.121782	-0.002862	-0.047355	-1.041655	-0.001761	-0.035971	-0.961528	-0.022017	-0.262695	-7.130305	0.000000	0.000000	23.895943	6.633957	7.039057	-0.343399	-12.727224	30.515480	31.492939	77.374984	-7.422702	3.538818	-0.586691	-12.906472	44.399226	25.372322	76.093783	-9.060307	2.887137
4.104167	-2.286828	-0.605034	94.771530	0.204931	0.621738	0.693406	1.945206	-2.739999	-16.908563	8.193044	0.142996	16.253716	12.015624	0.000000	3.208921	3.697970	4.631433	4.866883	0.084943	7.812546	-13.519032	0.000000	0.002940	-0.022481	-1.284186	0.005460	-0.029900	-1.364448	0.004830	-0.054661	-1.364448	0.003360	-0.054661	-1.123663	0.002730	-0.045844	-1.043401	0.001680	-0.034824	-0.963140	0.020999	-0.254314	-7.142258	0.000000	0.000000	24.142246	6.657071	7.000632	-0.278503	-12.615177	30.238206	32.068023	76.802362	-7.521999	3.168841	-0.653941	-12.895901	43.083635	26.062827	77.212147	-8.867528	3.435007
4.125000	-2.238337	-0.883684	94.641024	0.205358	0.621435	0.694914	2.433816	-2.707023	-16.833110	8.308610	0.145013	16.073640	12.000987	0.000000	3.821249	3.629505	4.140555	5.311295	0.092700	8.062853	-13.125355	0.000000	0.010071	-0.017574	-1.260781	0.018703	-0.023373	-1.339579	0.016546	-0.042729	-1.339579	0.011510	-0.042729	-1.103183	0.009352	-0.035837	-1.024384	0.005755	-0.027222	-0.945585	0.071937	-0.198800	-7.012084	0.000000	0.000000	24.420854	6.624734	7.006146	-0.151499	-12.570914	30.271343	32.706877	76.358250	-7.778560	2.738190	-0.663278	-12.883597	41.953092	26.817073	78.486585	-8.785303	3.998016
4.145833	-2.168733	-1.194951	94.451639	0.205861	0.621079	0.696529	3.002381	-2.660526	-16.762492	8.488042	0.148144	15.909731	12.018052	0.000000	4.505690	3.530104	3.580574	5.812720	0.101451	8.375127	-12.720702	0.000000	0.018123	-0.008581	-1.225180	0.033657	-0.011412	-1.301754	0.029775	-0.020863	-1.301754	0.020713	-0.020863	-1.072033	0.016829	-0.017498	-0.995459	0.010356	-0.013292	-0.918885	0.129454	-0.097067	-6.814085	0.000000	0.000000	24.745275	6.536501	7.029390	-0.070620	-12.533849	29.992404	33.484008	76.579210	-8.064933	2.423049	-0.689720	-12.871953	40.598793	27.696775	79.970220	-8.688773	4.541633
